<svg width="2" height="2" viewBox="0 0 12 12" fill="#1E21E9" xmlns="http://www.w3.org/2000/svg">
<path d="M11.6898 1.35711C11.9989 1.92242 11.7913 2.63133 11.226 2.94049C9.62605 3.81542 8.12361 5.64708 6.97632 7.40373C6.41713 8.26007 5.96843 9.05748 5.65985 9.64047C5.50585 9.93132 5.38755 10.1674 5.30856 10.3289L5.19388 10.5686C5.01363 10.9625 4.6298 11.2246 4.1972 11.2485C3.76448 11.2723 3.35413 11.0543 3.13166 10.6824C2.76915 10.0763 2.19313 9.5231 1.65931 9.10112C1.39993 8.89602 1.16645 8.73432 0.999843 8.62523L0.754504 8.47182C0.195099 8.15238 0.00031276 7.44013 0.319454 6.8806C0.638666 6.32083 1.35117 6.12588 1.91087 6.44508L2.27842 6.6734C2.49097 6.81258 2.7825 7.01465 3.10646 7.27073C3.35402 7.4665 3.63083 7.70182 3.91031 7.97295C4.20991 7.43465 4.58441 6.79917 5.02273 6.12787C6.20888 4.31172 7.973 2.06 10.1065 0.89329C10.6717 0.584123 11.3806 0.79179 11.6898 1.35711Z" fill="#1E21E9"/>
</svg>
