<svg width="10" height="10" viewBox="0 0 10 10" fill="none" xmlns="http://www.w3.org/2000/svg">
<path d="M9.8775 1.02038C10.1425 1.50493 9.9645 2.11257 9.48 2.37756C8.1086 3.1275 6.8208 4.6975 5.8374 6.2032C5.3581 6.9372 4.9735 7.6207 4.709 8.1204C4.577 8.3697 4.4756 8.5721 4.4079 8.7105L4.3096 8.9159C4.1551 9.2536 3.8261 9.4782 3.4553 9.4987C3.0844 9.5191 2.73267 9.3323 2.54198 9.0135C2.23126 8.494 1.73753 8.0198 1.27997 7.6581C1.05764 7.4823 0.857519 7.3437 0.714709 7.2502L0.504419 7.1187C0.024929 6.8449 -0.142031 6.2344 0.131519 5.7548C0.405129 5.275 1.01585 5.1079 1.49559 5.3815L1.81063 5.5772C1.99282 5.6965 2.2427 5.8697 2.52038 6.0892C2.73258 6.257 2.96984 6.4587 3.2094 6.6911C3.4662 6.2297 3.7872 5.685 4.1629 5.1096C5.1796 3.5529 6.6917 1.62286 8.5204 0.62282C9.0049 0.35782 9.6125 0.53582 9.8775 1.02038Z" fill="#7950FF"/>
</svg>
